<svg width="22" height="22" viewBox="0 0 22 22" fill="none" xmlns="http://www.w3.org/2000/svg">
<rect width="22" height="22" fill="#C7C7C7"/>
<g clip-path="url(#clip0_0_1)">
<rect width="375" height="812" transform="translate(-264 -55)" fill="#2A2A2A"/>
<rect x="-186" y="-4" width="220" height="30" rx="12" fill="#D9D9D9"/>
<g opacity="0.4">
<path d="M11 20.8542C5.56415 20.8542 1.14581 16.4358 1.14581 11C1.14581 5.56418 5.56415 1.14584 11 1.14584C16.4358 1.14584 20.8541 5.56418 20.8541 11C20.8541 16.4358 16.4358 20.8542 11 20.8542ZM11 2.52084C6.32498 2.52084 2.52081 6.32501 2.52081 11C2.52081 15.675 6.32498 19.4792 11 19.4792C15.675 19.4792 19.4791 15.675 19.4791 11C19.4791 6.32501 15.675 2.52084 11 2.52084Z" fill="#292D32"/>
<path d="M8.40585 14.2817C8.23168 14.2817 8.05752 14.2175 7.92002 14.08C7.65418 13.8142 7.65418 13.3742 7.92002 13.1083L13.1084 7.91999C13.3742 7.65415 13.8142 7.65415 14.08 7.91999C14.3459 8.18582 14.3459 8.62582 14.08 8.89165L8.89168 14.08C8.76335 14.2175 8.58002 14.2817 8.40585 14.2817Z" fill="#292D32"/>
<path d="M13.5942 14.2817C13.42 14.2817 13.2459 14.2175 13.1084 14.08L7.92002 8.89165C7.65418 8.62582 7.65418 8.18582 7.92002 7.91999C8.18585 7.65415 8.62585 7.65415 8.89168 7.91999L14.08 13.1083C14.3459 13.3742 14.3459 13.8142 14.08 14.08C13.9425 14.2175 13.7684 14.2817 13.5942 14.2817Z" fill="#292D32"/>
</g>
<path fill-rule="evenodd" clip-rule="evenodd" d="M-224 -55H-264V-15C-264 -37.0914 -246.091 -55 -224 -55ZM-186 -55L-185.108 -54.7838C-183.22 -54.326 -181.667 -52.9139 -180.996 -51.1C-180.963 -51.0106 -180.954 -50.9144 -180.954 -50.819L-180.961 -47.039C-180.961 -34.2975 -170.663 -24 -157.961 -24H4.96094C17.6635 -24 27.9609 -34.2975 27.9609 -47L27.9545 -50.8192C27.9543 -50.9155 27.9688 -51.0095 28.0018 -51.1C28.6678 -52.927 30.2113 -54.3238 32.1082 -54.7838L33 -55H-186ZM71 -55C93.0914 -55 111 -37.0914 111 -15V-55H71ZM111 717C111 739.091 93.0914 757 71 757H111V717ZM-224 757C-246.091 757 -264 739.091 -264 717V757H-224Z" fill="#E5E5E5"/>
</g>
<defs>
<clipPath id="clip0_0_1">
<rect width="375" height="812" fill="white" transform="translate(-264 -55)"/>
</clipPath>
</defs>
</svg>
