<svg width="22" height="22" viewBox="0 0 22 22" fill="none" xmlns="http://www.w3.org/2000/svg">
<rect width="22" height="22" fill="#C7C7C7"/>
<g clip-path="url(#clip0_0_1)">
<rect width="375" height="812" transform="translate(-264 -55)" fill="#2A2A2A"/>
<rect x="-186" y="-4" width="220" height="30" rx="12" fill="#D9D9D9"/>
<g opacity="0.4">
<path d="M10.5417 19.9375C5.36251 19.9375 1.14584 15.7208 1.14584 10.5417C1.14584 5.36251 5.36251 1.14584 10.5417 1.14584C15.7208 1.14584 19.9375 5.36251 19.9375 10.5417C19.9375 15.7208 15.7208 19.9375 10.5417 19.9375ZM10.5417 2.52084C6.11418 2.52084 2.52084 6.12334 2.52084 10.5417C2.52084 14.96 6.11418 18.5625 10.5417 18.5625C14.9692 18.5625 18.5625 14.96 18.5625 10.5417C18.5625 6.12334 14.9692 2.52084 10.5417 2.52084Z" fill="#292D32"/>
<path d="M20.1667 20.8542C19.9925 20.8542 19.8183 20.79 19.6808 20.6525L17.8475 18.8192C17.5817 18.5533 17.5817 18.1133 17.8475 17.8475C18.1133 17.5817 18.5533 17.5817 18.8192 17.8475L20.6525 19.6808C20.9183 19.9467 20.9183 20.3867 20.6525 20.6525C20.515 20.79 20.3408 20.8542 20.1667 20.8542Z" fill="#292D32"/>
</g>
<path fill-rule="evenodd" clip-rule="evenodd" d="M-224 -55H-264V-15C-264 -37.0914 -246.091 -55 -224 -55ZM-186 -55L-185.108 -54.7838C-183.22 -54.326 -181.667 -52.9139 -180.996 -51.1C-180.963 -51.0106 -180.954 -50.9144 -180.954 -50.819L-180.961 -47.039C-180.961 -34.2975 -170.663 -24 -157.961 -24H4.96094C17.6635 -24 27.9609 -34.2975 27.9609 -47L27.9545 -50.8192C27.9543 -50.9155 27.9688 -51.0095 28.0018 -51.1C28.6678 -52.927 30.2113 -54.3238 32.1082 -54.7838L33 -55H-186ZM71 -55C93.0914 -55 111 -37.0914 111 -15V-55H71ZM111 717C111 739.091 93.0914 757 71 757H111V717ZM-224 757C-246.091 757 -264 739.091 -264 717V757H-224Z" fill="#E5E5E5"/>
</g>
<defs>
<clipPath id="clip0_0_1">
<rect width="375" height="812" fill="white" transform="translate(-264 -55)"/>
</clipPath>
</defs>
</svg>
